<?xml version="1.0" standalone="no"?>
<!DOCTYPE svg PUBLIC "-//W3C//DTD SVG 20010904//EN"
 "http://www.w3.org/TR/2001/REC-SVG-20010904/DTD/svg10.dtd">
<svg version="1.0" xmlns="http://www.w3.org/2000/svg"
 width="225.000000pt" height="225.000000pt" viewBox="0 0 225.000000 225.000000"
 preserveAspectRatio="xMidYMid meet">

<g transform="translate(0.000000,225.000000) scale(0.100000,-0.100000)"
fill="#000000" stroke="none">
<path d="M547 2173 c-7 -11 11 -102 24 -126 6 -11 8 -21 5 -24 -3 -4 -83 4
-178 16 -209 26 -198 26 -198 1 0 -28 26 -36 155 -50 61 -6 144 -16 186 -22
76 -10 77 -10 92 -48 8 -21 40 -77 71 -123 31 -47 68 -118 81 -157 14 -40 36
-88 51 -107 15 -20 29 -55 34 -86 15 -94 67 -283 95 -343 26 -57 51 -143 60
-208 9 -67 38 -122 108 -203 39 -47 87 -105 105 -129 28 -39 35 -43 53 -33 21
11 46 -10 142 -119 16 -17 63 -55 105 -84 86 -59 116 -104 128 -196 3 -29 10
-55 15 -58 14 -8 69 26 78 49 32 84 34 101 16 112 -57 34 -111 85 -159 149
-30 41 -75 91 -101 112 -41 34 -185 233 -185 256 0 13 15 10 102 -19 73 -24
85 -25 122 -14 22 7 51 12 64 12 36 -1 80 -29 96 -60 27 -51 68 -91 145 -143
82 -55 151 -115 151 -133 0 -6 17 -28 38 -48 l38 -37 68 90 c49 65 69 101 73
130 7 53 -19 66 -51 25 -30 -37 -72 -53 -119 -45 -46 9 -65 25 -132 115 -55
74 -181 202 -218 222 -12 6 -22 19 -22 29 0 12 -16 23 -55 37 -30 10 -73 36
-97 58 -23 21 -48 39 -54 39 -6 0 -25 7 -42 15 -18 8 -50 15 -72 17 l-40 3
-23 70 c-15 46 -21 86 -19 115 6 68 50 159 105 217 77 82 168 264 205 410 12
48 22 89 23 91 0 1 52 -6 115 -17 117 -19 139 -19 139 5 0 20 -25 29 -140 49
-71 12 -112 25 -127 38 -18 16 -30 18 -65 13 -25 -4 -76 0 -123 9 -257 51
-336 64 -350 59 -24 -9 -19 -53 8 -64 12 -5 72 -16 132 -25 315 -47 354 -58
355 -91 0 -15 -45 -99 -75 -137 -13 -18 -32 -53 -43 -78 -11 -25 -31 -53 -46
-62 -14 -10 -38 -35 -52 -56 -19 -30 -35 -41 -69 -50 -26 -6 -53 -22 -67 -39
-60 -71 -80 -29 -27 57 29 46 31 55 25 105 -8 60 -32 87 -89 101 -65 17 -107
-16 -108 -83 -1 -61 -12 -101 -23 -84 -4 7 -25 21 -46 32 -23 12 -47 36 -62
62 -14 24 -42 72 -62 108 -21 36 -56 85 -79 108 l-42 44 70 -8 c112 -13 149
-11 153 7 4 22 -11 27 -141 40 -61 7 -115 15 -120 19 -4 3 -10 17 -12 31 -8
39 -27 79 -35 74 -5 -3 -11 3 -15 14 -7 24 -41 55 -48 44z"/>
</g>
</svg>
